<?xml version="1.0" encoding="UTF-8"?>
<svg id="Detalhes" xmlns="http://www.w3.org/2000/svg" viewBox="0 0 823.76 884.35">
  <defs>
    <style>
      .cls-1 {
        fill: #1d1d1b;
        stroke-width: 0px;
      }
    </style>
  </defs>
  <path id="Bolinhas" class="cls-1" d="M444.18,90.88c0,17.84-14.46,32.29-32.29,32.29s-32.29-14.46-32.29-32.29,14.46-32.29,32.29-32.29,32.29,14.46,32.29,32.29ZM791.47,58.59c-17.84,0-32.29,14.46-32.29,32.29s14.46,32.29,32.29,32.29,32.29-14.46,32.29-32.29-14.46-32.29-32.29-32.29ZM791.47,439.18c-17.84,0-32.29,14.46-32.29,32.29s14.46,32.29,32.29,32.29,32.29-14.46,32.29-32.29-14.46-32.29-32.29-32.29ZM32.29,439.18c-17.84,0-32.29,14.46-32.29,32.29s14.46,32.29,32.29,32.29,32.29-14.46,32.29-32.29-14.46-32.29-32.29-32.29ZM32.29,58.59C14.46,58.59,0,73.05,0,90.88s14.46,32.29,32.29,32.29,32.29-14.46,32.29-32.29-14.46-32.29-32.29-32.29ZM411.88,819.76c-17.84,0-32.29,14.46-32.29,32.29s14.46,32.29,32.29,32.29,32.29-14.46,32.29-32.29-14.46-32.29-32.29-32.29ZM791.47,819.76c-17.84,0-32.29,14.46-32.29,32.29s14.46,32.29,32.29,32.29,32.29-14.46,32.29-32.29-14.46-32.29-32.29-32.29ZM32.29,819.76c-17.84,0-32.29,14.46-32.29,32.29s14.46,32.29,32.29,32.29,32.29-14.46,32.29-32.29-14.46-32.29-32.29-32.29Z"/>
</svg>