<?xml version="1.0" encoding="UTF-8"?>
<svg id="Olhos" xmlns="http://www.w3.org/2000/svg" viewBox="0 0 973 952.99">
  <defs>
    <style>
      .cls-1 {
        fill: #fff;
        stroke-width: 0px;
      }
    </style>
  </defs>
  <path id="Carinha" class="cls-1" d="M671.75,502.7l-85.15,154.08-52.71-52.71-48.66,52.71-48.66-52.71-52.71,52.71-85.15-154.08,135.83,77.04,50.68-77.04,50.68,77.04,135.83-77.04ZM585.24,430.3c24.85,0,45-20.15,45-45s-20.15-45-45-45-45,20.15-45,45,20.15,45,45,45ZM385.24,430.3c24.85,0,45-20.15,45-45s-20.15-45-45-45-45,20.15-45,45,20.15,45,45,45Z"/>
</svg>