<?xml version="1.0" encoding="UTF-8"?>
<svg id="Detalhes" xmlns="http://www.w3.org/2000/svg" viewBox="0 0 973 951.12">
  <defs>
    <style>
      .cls-1 {
        fill: #1d1d1b;
        stroke-width: 0px;
      }
    </style>
  </defs>
  <path id="Chifres" class="cls-1" d="M115.53,82.94L172.71,2v53.65l103.29,61.65h-103.29l-57.18-34.35ZM857.71,83.18L800.53,2.23v53.65l-103.29,61.65h103.29l57.18-34.35ZM80.94,844.56L0,787.38h53.65l61.65-103.29v103.29l-34.35,57.18ZM81.18,102.38L.24,159.56h53.65l61.65,103.29v-103.29l-34.35-57.18ZM857.47,864l-57.18,80.94v-53.65l-103.29-61.65h103.29l57.18,34.35ZM115.29,863.76l57.18,80.94v-53.65l103.29-61.65h-103.29l-57.18,34.35ZM892.06,102.38l80.94,57.18h-53.65l-61.65,103.29v-103.29l34.35-57.18ZM891.82,844.56l80.94-57.18h-53.65l-61.65-103.29v103.29l34.35,57.18Z"/>
</svg>