<?xml version="1.0" encoding="UTF-8"?>
<svg id="Olhos" xmlns="http://www.w3.org/2000/svg" viewBox="0 0 823.76 884.35">
  <defs>
    <style>
      .cls-1 {
        fill: #fff;
        stroke-width: 0px;
      }
    </style>
  </defs>
  <path id="Dois_Olhos" data-name="Dois Olhos" class="cls-1" d="M576.17,381.53c-54.3,0-98.32,44.02-98.32,98.32s44.02,98.32,98.32,98.32,98.32-44.02,98.32-98.32-44.02-98.32-98.32-98.32ZM576.17,524.12c-24.45,0-44.26-19.82-44.26-44.26s19.82-44.26,44.26-44.26,44.26,19.82,44.26,44.26-19.82,44.26-44.26,44.26ZM247.59,381.53c-54.3,0-98.32,44.02-98.32,98.32s44.02,98.32,98.32,98.32,98.32-44.02,98.32-98.32-44.02-98.32-98.32-98.32ZM247.59,524.12c-24.45,0-44.26-19.82-44.26-44.26s19.82-44.26,44.26-44.26,44.26,19.82,44.26,44.26-19.82,44.26-44.26,44.26Z"/>
</svg>