<?xml version="1.0" encoding="UTF-8"?>
<svg id="Corpo" xmlns="http://www.w3.org/2000/svg" viewBox="0 0 973 952.99">
  <defs>
    <style>
      .cls-1 {
        fill: #1d1d1b;
        stroke-width: 0px;
      }
    </style>
  </defs>
  <path id="Esquisito" class="cls-1" d="M485.24,160.34l2.02,10.37c16.3,83.64,117.66,117.47,180.93,60.37l11.73-10.59-.42.84c-39.25,78.28,24.65,168.69,111.54,157.82l9.2-1.15h0c-79.05,40.82-79.05,153.86,0,194.68h0s-9.2-1.15-9.2-1.15c-86.89-10.88-150.79,79.54-111.54,157.82l.42.84-11.73-10.59c-63.26-57.09-164.63-23.27-180.93,60.37l-2.02,10.37-2.02-10.37c-16.3-83.64-117.66-117.47-180.93-60.37l-11.73,10.59.42-.84c39.25-78.28-24.65-168.69-111.54-157.82l-9.2,1.15h0c79.05-40.82,79.05-153.86,0-194.68h0s9.2,1.15,9.2,1.15c86.89,10.88,150.79-79.54,111.54-157.82l-.42-.84,11.73,10.59c63.26,57.09,164.63,23.27,180.93-60.37l2.02-10.37Z"/>
</svg>