<?xml version="1.0" encoding="UTF-8"?>
<svg id="Detalhes" xmlns="http://www.w3.org/2000/svg" viewBox="0 0 973 952.99">
  <defs>
    <style>
      .cls-1 {
        fill: #1d1d1b;
        stroke-width: 0px;
      }
    </style>
  </defs>
  <path id="Estrelas" class="cls-1" d="M57.44,82.79L19.99,37.67l57.8,9.87L122.91,10.09l-9.87,57.8,37.45,45.12-57.8-9.87-45.12,37.45,9.87-57.8ZM485.24,0l-20.35,54.99-54.99,20.35,54.99,20.35,20.35,54.99,20.35-54.99,54.99-20.35-54.99-20.35L485.24,0ZM485.24,800l-20.35,54.99-54.99,20.35,54.99,20.35,20.35,54.99,20.35-54.99,54.99-20.35-54.99-20.35-20.35-54.99ZM85.24,400l-20.35,54.99-54.99,20.35,54.99,20.35,20.35,54.99,20.35-54.99,54.99-20.35-54.99-20.35-20.35-54.99ZM885.24,550.68l20.35-54.99,54.99-20.35-54.99-20.35-20.35-54.99-20.35,54.99-54.99,20.35,54.99,20.35,20.35,54.99ZM122.91,810.09l-45.12,37.45-57.8-9.87,37.45,45.12-9.87,57.8,45.12-37.45,57.8,9.87-37.45-45.12,9.87-57.8ZM892.68,847.54l-45.12-37.45,9.87,57.8-37.45,45.12,57.8-9.87,45.12,37.45-9.87-57.8,37.45-45.12-57.8,9.87ZM877.79,103.14l45.12,37.45-9.87-57.8,37.45-45.12-57.8,9.87-45.12-37.45,9.87,57.8-37.45,45.12,57.8-9.87Z"/>
</svg>