<?xml version="1.0" encoding="UTF-8"?>
<svg id="Olhos" xmlns="http://www.w3.org/2000/svg" viewBox="0 0 973 952.99">
  <defs>
    <style>
      .cls-1 {
        fill: #fff;
        stroke-width: 0px;
      }
    </style>
  </defs>
  <path id="Quatro_Olhos" data-name="Quatro Olhos" class="cls-1" d="M596.12,485.71c-36.65,0-66.36,29.71-66.36,66.36s29.71,66.36,66.36,66.36,66.36-29.71,66.36-66.36-29.71-66.36-66.36-66.36ZM596.12,581.94c-16.5,0-29.88-13.38-29.88-29.88s13.38-29.88,29.88-29.88,29.88,13.38,29.88,29.88-13.38,29.88-29.88,29.88ZM374.35,485.71c-36.65,0-66.36,29.71-66.36,66.36s29.71,66.36,66.36,66.36,66.36-29.71,66.36-66.36-29.71-66.36-66.36-66.36ZM374.35,581.94c-16.5,0-29.88-13.38-29.88-29.88s13.38-29.88,29.88-29.88,29.88,13.38,29.88,29.88-13.38,29.88-29.88,29.88ZM596.12,464.98c36.65,0,66.36-29.71,66.36-66.36s-29.71-66.36-66.36-66.36-66.36,29.71-66.36,66.36,29.71,66.36,66.36,66.36ZM596.12,368.74c16.5,0,29.88,13.38,29.88,29.88s-13.38,29.88-29.88,29.88-29.88-13.38-29.88-29.88,13.38-29.88,29.88-29.88ZM374.35,332.25c-36.65,0-66.36,29.71-66.36,66.36s29.71,66.36,66.36,66.36,66.36-29.71,66.36-66.36-29.71-66.36-66.36-66.36ZM374.35,428.49c-16.5,0-29.88-13.38-29.88-29.88s13.38-29.88,29.88-29.88,29.88,13.38,29.88,29.88-13.38,29.88-29.88,29.88Z"/>
</svg>