<?xml version="1.0" encoding="UTF-8"?>
<svg id="Olhos" xmlns="http://www.w3.org/2000/svg" viewBox="0 0 823.76 884.35">
  <defs>
    <style>
      .cls-1 {
        fill: #fff;
        stroke-width: 0px;
      }
    </style>
  </defs>
  <path id="Três_Olhos" data-name="Três Olhos" class="cls-1" d="M261.13,493.87c-46.96,0-85.03,38.07-85.03,85.03s38.07,85.03,85.03,85.03,85.03-38.07,85.03-85.03-38.07-85.03-85.03-85.03ZM261.13,617.18c-21.14,0-38.28-17.14-38.28-38.28s17.14-38.28,38.28-38.28,38.28,17.14,38.28,38.28-17.14,38.28-38.28,38.28ZM562.63,493.87c-46.96,0-85.03,38.07-85.03,85.03s38.07,85.03,85.03,85.03,85.03-38.07,85.03-85.03-38.07-85.03-85.03-85.03ZM562.63,617.18c-21.14,0-38.28-17.14-38.28-38.28s17.14-38.28,38.28-38.28,38.28,17.14,38.28,38.28-17.14,38.28-38.28,38.28ZM409.87,238.78c-46.96,0-85.03,38.07-85.03,85.03s38.07,85.03,85.03,85.03,85.03-38.07,85.03-85.03-38.07-85.03-85.03-85.03ZM409.87,362.09c-21.14,0-38.28-17.14-38.28-38.28s17.14-38.28,38.28-38.28,38.28,17.14,38.28,38.28-17.14,38.28-38.28,38.28Z"/>
</svg>